Coordinates
version=1
nRows=7
nColumns=60
inDegrees=yes

Units are S.I. units (second, meters, Newtons, ...)
If the header above contains a line with 'inDegrees', this indicates whether rotational values are in degrees (yes) or radians (no).

endheader
time	pelvis_tilt	pelvis_list	pelvis_rotation	pelvis_tx	pelvis_ty	pelvis_tz	hip_flexion_r	hip_adduction_r	hip_rotation_r	knee_angle_r_beta	knee_angle_r	ankle_angle_r	subtalar_angle_r	mtp_angle_r	hip_flexion_l	hip_adduction_l	hip_rotation_l	knee_angle_l_beta	knee_angle_l	ankle_angle_l	subtalar_angle_l	mtp_angle_l	L5_S1_Flex_Ext	L5_S1_Lat_Bending	L5_S1_axial_rotation	L4_L5_Flex_Ext	L4_L5_Lat_Bending	L4_L5_axial_rotation	L3_L4_Flex_Ext	L3_L4_Lat_Bending	L3_L4_axial_rotation	L2_L3_Flex_Ext	L2_L3_Lat_Bending	L2_L3_axial_rotation	L1_L2_Flex_Ext	L1_L2_Lat_Bending	L1_L2_axial_rotation	L1_T12_Flex_Ext	L1_T12_Lat_Bending	L1_T12_axial_rotation	Abs_r3	Abs_r2	Abs_r1	Abs_t1	Abs_t2	arm_flex_r	arm_add_r	arm_rot_r	elbow_flex_r	pro_sup_r	wrist_flex_r	wrist_dev_r	arm_flex_l	arm_add_l	arm_rot_l	elbow_flex_l	pro_sup_l	wrist_flex_l	wrist_dev_l
     75.41000000	      0.04798062	     10.21093195	     89.75605501	      0.40229699	      0.94413981	      0.27815491	      0.43430737	     -5.14143127	      0.80572381	      0.29870474	    -17.11452064	      8.28993755	      0.00000000	      0.00000000	     -0.96904016	     -5.43331694	     -4.45007817	      0.24673769	    -14.13702819	      9.02906535	      0.00000000	      0.00000000	     -6.00124218	     -0.07464138	      0.13911523	    -11.14490686	     -0.09927303	      0.14780993	     -9.85944078	     -0.18148305	      0.14780993	     -6.85881969	     -0.18148305	      0.12172583	     -5.57275349	     -0.15220870	      0.11303113	     -3.42910978	     -0.11561949	      0.10433642	    -42.86627278	     -0.84435820	      0.77371719	      0.00000000	      0.00000000	     61.75911486	    -25.63549857	     25.42024943	     54.67930549	     54.89891794	      7.25129226	     23.08902617	     64.99643645	    -21.59511791	     33.11528895	     51.51920584	     49.59285802	      3.39722889	     18.56223439
     75.42000000	      0.09233643	     10.03997870	     89.64719299	      0.40194279	      0.94426071	      0.27933783	      0.65984196	     -5.11233062	      1.04117150	      0.29653919	    -16.99044418	      7.92303845	      0.00000000	      0.00000000	     -0.76381731	     -5.43436590	     -4.42106640	      0.24526237	    -14.05249864	      8.77667535	      0.00000000	      0.00000000	     -6.03698151	     -0.07391371	      0.14871158	    -11.21127836	     -0.09830524	      0.15800605	     -9.91815692	     -0.17971381	      0.15800605	     -6.89966616	     -0.17971381	      0.13012263	     -5.60594103	     -0.15072485	      0.12082816	     -3.44953123	     -0.11449234	      0.11153369	    -43.12155521	     -0.83612672	      0.82708920	      0.00000000	      0.00000000	     63.27644569	    -25.12501666	     25.94738406	     52.93522396	     54.93408537	      7.38451597	     22.95442070	     66.33783655	    -20.98395308	     33.54039188	     49.71262754	     49.43277346	      3.46247864	     18.44045454
     75.43000000	      0.15356470	      9.86609875	     89.52005150	      0.40158641	      0.94437937	      0.28039575	      0.87507441	     -5.07445918	      1.17964131	      0.29368496	    -16.82690887	      7.61669260	      0.00000000	      0.00000000	     -0.59732784	     -5.45047560	     -4.48798575	      0.24274033	    -13.90799640	      8.58990593	      0.00000000	      0.00000000	     -6.06556601	     -0.07157109	      0.16319881	    -11.26436264	     -0.09518955	      0.17339874	     -9.96511840	     -0.17401795	      0.17339874	     -6.93233539	     -0.17401795	      0.14279896	     -5.63248460	     -0.14594776	      0.13259904	     -3.46586442	     -0.11086362	      0.12239911	    -43.32573145	     -0.80962647	      0.90766284	      0.00000000	      0.00000000	     64.81345564	    -24.58697654	     26.66018887	     50.98116256	     54.95824817	      7.56219606	     22.71575488	     67.65867472	    -20.33763625	     34.07796011	     47.75746639	     49.22677908	      3.58530746	     18.26577531
     75.44000000	      0.21325637	      9.67888994	     89.39144952	      0.40119745	      0.94448756	      0.28143953	      1.10810720	     -5.03866914	      1.31157917	      0.29108148	    -16.67774012	      7.33327223	      0.00000000	      0.00000000	     -0.40928820	     -5.46592482	     -4.56863322	      0.24030258	    -13.76832338	      8.42504813	      0.00000000	      0.00000000	     -6.09609804	     -0.06901760	      0.17858908	    -11.32106367	     -0.09179341	      0.18975090	    -10.01527947	     -0.16780940	      0.18975090	     -6.96723045	     -0.16780940	      0.15626545	     -5.66083664	     -0.14074070	      0.14510363	     -3.48331042	     -0.10690827	      0.13394181	    -43.54381868	     -0.78074094	      0.99325891	      0.00000000	      0.00000000	     66.30839037	    -24.11496711	     27.42954742	     49.17876305	     54.94264089	      7.81256585	     22.32181428	     68.91408459	    -19.76604883	     34.62541182	     46.02418615	     48.99256469	      3.77525641	     17.99420165
     75.45000000	      0.26807237	      9.50933989	     89.25026031	      0.40080116	      0.94464483	      0.28241779	      1.32055188	     -5.01788755	      1.38396097	      0.28838443	    -16.52321082	      7.12106355	      0.00000000	      0.00000000	     -0.25073270	     -5.47477148	     -4.64742556	      0.23787094	    -13.62900110	      8.31261199	      0.00000000	      0.00000000	     -6.12330859	     -0.06712429	      0.19210385	    -11.37159638	     -0.08927530	      0.20411034	    -10.05998368	     -0.16320599	      0.20411034	     -6.99832939	     -0.16320599	      0.16809087	     -5.68610436	     -0.13687985	      0.15608438	     -3.49885853	     -0.10397552	      0.14407789	    -43.73818092	     -0.75932336	      1.06842397	      0.00000000	      0.00000000	     67.83002347	    -23.73727694	     28.76908240	     47.06688577	     54.02813945	     10.24600119	     18.65589544	     70.11209974	    -19.39642646	     35.66502502	     44.30572536	     47.36575220	      5.44189828	     15.37064621
     75.46000000	      0.32780169	      9.21928308	     89.07395804	      0.40048960	      0.94467826	      0.28339325	      1.70181245	     -4.96807698	      1.65771129	      0.28680523	    -16.43272895	      6.68629713	      0.00000000	      0.00000000	      0.05036095	     -5.49772430	     -4.73160018	      0.23597653	    -13.52045927	      8.03092262	      0.00000000	      0.00000000	     -6.14193342	     -0.06641744	      0.22494321	    -11.40618456	     -0.08833520	      0.23900216	    -10.09058242	     -0.16148737	      0.23900216	     -7.01961571	     -0.16148737	      0.19682531	     -5.70339938	     -0.13543845	      0.18276636	     -3.50950076	     -0.10288062	      0.16870741	    -43.87121625	     -0.75132742	      1.25106667	      0.00000000	      0.00000000	     69.06545293	    -23.31114209	     29.17755840	     45.56235966	     54.07351214	     10.26494111	     18.67601275	     71.16825326	    -18.84145699	     35.96850506	     42.93826427	     47.39657067	      5.33213814	     15.37006286
     75.47000000	      0.35747283	      8.92830746	     88.87824460	      0.40014099	      0.94472930	      0.28424834	      2.06109432	     -4.96386024	      1.83178349	      0.28450501	    -16.30093612	      6.38374081	      0.00000000	      0.00000000	      0.33001947	     -5.47690506	     -4.81332656	      0.23401233	    -13.40791858	      7.83265275	      0.00000000	      0.00000000	     -6.15575979	     -0.06658808	      0.26617272	    -11.43186151	     -0.08856215	      0.28280852	    -10.11329777	     -0.16190227	      0.28280852	     -7.03541787	     -0.16190227	      0.23290113	     -5.71623855	     -0.13578642	      0.21626534	     -3.51740115	     -0.10314494	      0.19962954	    -43.96997664	     -0.75325772	      1.48037282	      0.00000000	      0.00000000	     70.31970692	    -22.91747036	     29.73113361	     43.96175466	     54.10566075	     10.31969118	     18.60258434	     72.16288525	    -18.29176004	     36.42448641	     41.58620224	     47.45029171	      5.22825961	     15.32110376
